<?xml version="1.0" standalone="no"?>
<!DOCTYPE svg PUBLIC "-//W3C//DTD SVG 20010904//EN"
 "http://www.w3.org/TR/2001/REC-SVG-20010904/DTD/svg10.dtd">
<svg version="1.0" xmlns="http://www.w3.org/2000/svg"
 width="500.000000pt" height="500.000000pt" viewBox="0 0 500.000000 500.000000"
 preserveAspectRatio="xMidYMid meet">

<g transform="translate(0.000000,500.000000) scale(0.100000,-0.100000)"
fill="#000000" stroke="none">
<path d="M1450 3725 c0 -8 3 -15 8 -15 26 0 1005 -100 1008 -103 2 -2 -247
-11 -554 -21 -306 -9 -572 -19 -589 -22 -49 -7 -45 -36 5 -29 20 2 346 14 723
27 l687 22 863 -87 c656 -65 877 -91 919 -105 103 -36 195 -102 250 -178 l32
-45 14 -407 15 -407 -40 -394 -40 -394 -53 -54 c-81 -83 -172 -132 -290 -157
-27 -6 -40 -36 -15 -36 67 1 224 71 290 130 l49 43 -15 -35 c-73 -175 -242
-296 -449 -323 -64 -8 -61 -25 5 -25 177 1 370 128 457 302 22 44 40 88 40 98
0 9 16 47 36 84 19 37 44 102 55 144 19 69 20 96 14 262 -9 284 -7 412 10 570
36 337 32 430 -25 560 -16 36 -38 97 -49 135 -58 199 -220 349 -420 391 -69
14 -130 13 -775 -11 -386 -14 -755 -25 -821 -25 -72 0 -362 24 -725 60 -332
33 -608 60 -612 60 -4 0 -8 -7 -8 -15z m2992 -114 c135 -47 244 -142 302 -264
20 -41 36 -77 36 -82 0 -4 -24 15 -53 42 -67 61 -153 107 -237 127 -59 14
-327 43 -1167 123 -161 15 -289 30 -285 34 4 3 252 14 552 23 300 10 550 20
555 22 6 2 62 2 125 0 80 -3 132 -11 172 -25z m431 -746 c-1 -77 -6 -162 -11
-190 -9 -49 -10 -49 -11 35 -1 47 -3 150 -6 230 -5 144 -5 145 12 105 13 -32
17 -68 16 -180z m-37 -1084 c-9 -46 -24 -96 -32 -110 -11 -19 -13 -20 -10 -6
2 11 13 108 23 215 l18 195 8 -105 c7 -83 6 -122 -7 -189z"/>
<path d="M828 3707 c-58 -35 -81 -72 -86 -138 -4 -54 -2 -60 26 -89 53 -53
132 -33 132 33 0 33 -37 59 -77 55 -25 -3 -28 0 -31 30 -4 37 23 80 62 102 24
13 35 30 19 30 -5 0 -25 -10 -45 -23z"/>
<path d="M1098 3709 c-93 -48 -125 -170 -60 -234 47 -47 132 -22 132 39 0 33
-26 51 -74 51 l-41 0 1 40 c1 33 8 46 44 78 24 20 41 39 39 41 -2 2 -20 -4
-41 -15z"/>
<path d="M543 3680 c-84 -22 -131 -45 -199 -97 -96 -73 -163 -169 -199 -283
-9 -30 -29 -84 -43 -120 l-27 -65 -3 -515 c-2 -283 -4 -582 -5 -665 l-1 -150
50 -145 c30 -88 65 -168 88 -203 78 -118 214 -210 351 -237 66 -14 47 -14
1189 26 l708 24 477 -24 c659 -35 626 -34 626 -16 0 13 -48 18 -300 32 -165 9
-318 17 -340 19 -41 2 530 26 668 28 61 1 77 4 77 16 0 19 -79 19 -585 0 -209
-8 -463 -15 -565 -15 -221 0 -1896 84 -1993 101 -98 16 -199 70 -273 144 -100
102 -101 104 -113 435 -15 386 -14 530 4 905 12 232 21 332 32 364 24 67 132
172 223 215 40 19 97 40 126 46 39 8 51 15 47 26 -5 14 -10 14 -98 -8 -61 -15
-164 -76 -224 -132 l-54 -51 28 55 c39 78 148 183 227 220 66 31 166 60 205
60 14 0 23 6 23 15 0 20 -37 19 -127 -5z m-432 -700 l-8 -135 -1 115 c-2 102
4 167 14 157 2 -1 0 -63 -5 -137z m-8 -1070 c3 -80 2 -127 -3 -115 -8 19 -14
263 -6 254 2 -2 6 -65 9 -139z m258 -500 c106 -54 141 -58 904 -98 470 -24
703 -39 670 -44 -103 -15 -1308 -49 -1360 -39 -116 23 -197 65 -279 147 -49
48 -116 144 -116 168 0 4 27 -17 61 -48 33 -31 87 -70 120 -86z"/>
<path d="M2886 3181 c-24 -27 -45 -88 -46 -135 l0 -39 -49 46 c-90 84 -180
113 -325 104 -334 -22 -666 -276 -666 -510 0 -68 36 -142 99 -205 26 -26 112
-90 190 -142 l143 -94 -56 -51 c-67 -61 -96 -108 -96 -156 0 -47 27 -81 88
-111 40 -19 62 -23 147 -23 118 0 167 18 193 71 27 57 5 105 -90 195 l-79 77
34 26 c40 31 47 32 47 8 0 -26 20 -42 53 -42 33 0 58 12 112 54 37 29 44 31
127 31 l88 0 0 -77 c0 -95 5 -108 41 -108 24 0 35 10 73 69 44 68 66 92 66 72
0 -6 9 -20 20 -31 26 -26 84 -26 152 0 48 18 53 18 70 3 29 -26 92 -12 148 36
l47 40 70 -6 c53 -4 76 -2 101 11 17 9 45 16 63 16 l32 0 -7 -61 c-10 -82 7
-109 66 -109 54 0 111 28 180 90 53 47 57 49 87 39 28 -10 39 -8 82 14 l49 26
0 -32 c-1 -71 -18 -114 -78 -197 -114 -158 -202 -350 -202 -439 0 -56 19 -86
64 -101 49 -16 95 6 135 64 62 89 92 189 125 404 23 150 24 155 59 190 33 33
37 34 52 19 34 -35 92 -19 158 42 25 23 35 25 116 26 80 0 92 2 115 24 47 44
27 52 -52 20 -29 -12 -36 -11 -75 10 -50 27 -70 22 -136 -33 -49 -41 -59 -41
-37 1 23 43 63 81 103 98 34 14 35 17 21 32 -31 30 -82 9 -161 -67 -40 -38
-84 -78 -99 -90 l-27 -21 -3 93 -3 93 -32 3 c-29 3 -35 -2 -66 -50 -40 -64
-61 -82 -83 -74 -12 5 -15 18 -13 61 3 61 -8 80 -40 70 -22 -7 -46 -73 -37
-103 4 -12 -12 -35 -52 -73 -67 -66 -100 -89 -124 -89 -23 0 -24 40 -3 128 8
35 13 68 9 73 -9 15 -53 10 -81 -8 l-25 -17 7 52 7 52 -30 0 c-33 0 -38 -8
-56 -85 -10 -43 -15 -50 -44 -59 -27 -7 -40 -5 -73 13 -47 27 -62 23 -126 -30
-26 -21 -50 -34 -52 -28 -7 22 56 94 104 117 43 21 46 25 32 39 -11 12 -25 14
-53 8 -29 -5 -54 -23 -110 -80 -75 -76 -159 -129 -197 -123 -30 4 -33 40 -8
82 26 42 26 53 0 61 -26 9 -67 -19 -127 -86 -84 -94 -93 -51 -33 155 78 267
95 355 95 521 1 134 -1 154 -19 185 -26 43 -71 52 -99 21z m-238 -91 c60 -26
112 -81 139 -146 10 -24 22 -44 26 -44 9 0 -2 -445 -12 -520 -5 -40 -10 -45
-39 -54 -27 -7 -40 -5 -73 13 -47 27 -67 22 -130 -30 -56 -47 -64 -48 -44 -9
26 50 74 98 105 105 37 8 39 32 5 41 -36 9 -80 -12 -132 -64 -44 -44 -183
-132 -209 -132 -22 0 -284 179 -328 225 -143 146 -107 305 106 468 203 155
434 213 586 147z m281 -175 c-8 -120 -37 -316 -46 -325 -11 -10 18 394 34 480
l6 35 8 -35 c4 -19 3 -89 -2 -155z m-565 -818 c65 -64 83 -98 72 -140 -8 -32
-46 -47 -119 -47 -110 1 -179 50 -163 115 8 32 108 135 130 135 9 0 45 -28 80
-63z m1742 -111 c-16 -139 -89 -348 -135 -390 -34 -31 -36 2 -6 121 31 125
118 323 142 323 3 0 3 -24 -1 -54z"/>
<path d="M305 2718 c-3 -7 -4 -139 -3 -293 l3 -280 195 0 195 0 0 70 0 70
-107 3 -108 3 -2 217 -3 217 -83 3 c-61 2 -84 -1 -87 -10z m157 -225 l3 -218
108 -3 107 -3 0 -54 0 -55 -175 0 -175 0 0 275 0 275 65 0 65 0 2 -217z"/>
<path d="M725 2718 c-3 -7 -4 -139 -3 -293 l3 -280 85 0 85 0 0 290 0 290 -83
3 c-61 2 -84 -1 -87 -10z m145 -283 l0 -275 -65 0 -65 0 0 275 0 275 65 0 65
0 0 -275z"/>
<path d="M932 2438 l3 -293 83 -3 82 -3 0 111 0 110 58 0 c32 0 63 5 70 12 16
16 16 120 0 136 -7 7 -38 12 -70 12 -58 0 -58 0 -58 30 l0 29 108 3 107 3 3
73 3 72 -196 0 -195 0 2 -292z m368 217 l0 -54 -107 -3 -108 -3 0 -50 0 -50
63 -3 62 -3 0 -54 0 -55 -65 0 -65 0 0 -110 0 -110 -65 0 -65 0 0 275 0 275
175 0 175 0 0 -55z"/>
<path d="M1335 2718 c-3 -7 -4 -139 -3 -293 l3 -280 195 0 195 0 0 70 0 70
-107 3 -108 3 0 34 0 34 63 3 62 3 3 69 c3 81 -1 86 -75 86 -52 0 -53 1 -53
30 l0 29 108 3 107 3 0 70 0 70 -193 3 c-149 2 -194 0 -197 -10z m365 -63 l0
-55 -106 0 -105 0 3 -52 3 -53 63 -3 62 -3 0 -54 0 -55 -66 0 -65 0 3 -52 3
-53 103 -3 102 -3 0 -54 0 -55 -170 0 -170 0 0 275 0 275 170 0 170 0 0 -55z"/>
</g>
</svg>
